<svg xmlns="http://www.w3.org/2000/svg" viewBox="0 0 490 490" style="enable-background:new 0 0 490 490" xml:space="preserve"><path d="M245 0C109.684 0 0 109.684 0 245s109.684 245 245 245 245-109.684 245-245S380.316 0 245 0zm0 459.375c-118.213 0-214.375-96.163-214.375-214.375S126.787 30.625 245 30.625 459.375 126.787 459.375 245 363.212 459.375 245 459.375z"/><path d="m266.836 286.987 8.36-172.113h-60.408l8.744 172.113zM245.184 305.974c-20.136 0-34.178 14.424-34.178 34.576 0 19.738 13.674 34.576 34.178 34.576 20.503 0 33.825-14.823 33.825-34.576-.398-20.151-13.705-34.576-33.825-34.576z"/></svg>